<?xml version="1.0" encoding="utf-8"?>
<!-- Generator: Adobe Illustrator 26.0.0, SVG Export Plug-In . SVG Version: 6.00 Build 0)  -->
<svg version="1.1" id="Livello_1" xmlns="http://www.w3.org/2000/svg" xmlns:xlink="http://www.w3.org/1999/xlink" x="0px" y="0px"
	 viewBox="0 0 104 139" style="enable-background:new 0 0 104 139;" xml:space="preserve">
<style type="text/css">
	.st0{opacity:0.3;fill:#29D63D;enable-background:new    ;}
	.st1{fill:#29D63D;}
	.st2{fill-rule:evenodd;clip-rule:evenodd;fill:#29D63D;}
	.st3{fill:#FFFFFF;}
</style>
<path class="st0" d="M79,128.5c0,5.8-12.1,10.5-27,10.5s-27-4.7-27-10.5S37.1,118,52,118S79,122.7,79,128.5z"/>
<path class="st1" d="M52,124c19.8-27.7,48-38.3,48-71.1C100,26,79.5,4,52,4S4,26,4,52.9C4,85.7,32.2,96.4,52,124z"/>
<path class="st2" d="M52,128c-1.3,0-2.5-0.6-3.2-1.7c-4.6-6.3-9.8-12.2-15.4-17.7c-1.8-1.8-3.6-3.6-5.5-5.3
	c-3.5-3.4-7-6.8-10.2-10.2C7.8,82.5,0,70.7,0,52.9C0,23.9,22.2,0,52,0s52,23.9,52,52.9c0,17.8-7.8,29.6-17.7,40.2
	c-3.2,3.4-6.7,6.8-10.2,10.2c-1.8,1.8-3.7,3.6-5.5,5.3C65,114,59.8,120,55.2,126.3C54.5,127.4,53.3,128,52,128z M49.5,120.6
	c0.8,1.1,1.7,2.2,2.5,3.4c0.8-1.1,1.7-2.3,2.5-3.4c6-7.8,12.7-14.2,19-20.3C87.6,86.7,100,74.6,100,52.9C100,26,79.5,4,52,4
	S4,26,4,52.9c0,21.7,12.4,33.8,26.5,47.5C36.8,106.4,43.5,112.9,49.5,120.6z"/>
<path class="st1" d="M40.1,56.5"/>
<path class="st1" d="M52,33.7"/>
<rect x="20.2" y="83" class="st3" width="63.4" height="2.2"/>
<polygon class="st3" points="24.3,18.6 24.3,83 26.4,83 26.4,20.9 57.3,20.7 57.3,83 59.8,83 59.8,18.6 "/>
<polygon class="st3" points="59.8,33.6 77.4,33.6 77.4,83 79.6,83 79.6,31.5 59.8,31.5 "/>
<rect x="30.4" y="63" class="st3" width="10.2" height="1.9"/>
<polyline class="st3" points="30.4,73.2 40.6,73.2 40.6,65.1 38.5,65.1 38.5,71 32.5,71 32.5,65.1 30.4,65.1 "/>
<polyline class="st3" points="30.1,60 40.3,60 40.3,51.9 38.2,51.9 38.4,57.8 32.4,57.8 32.4,51.9 30.1,51.9 "/>
<polyline class="st3" points="43.5,60 53.7,60 53.7,51.9 51.6,51.9 51.6,57.8 45.6,57.8 45.6,51.9 43.5,51.9 "/>
<polyline class="st3" points="30.1,46.8 40.3,46.8 40.3,38.7 38.2,38.7 38.4,44.6 32.4,44.6 32.4,38.7 30.1,38.7 "/>
<polyline class="st3" points="43.5,46.8 53.7,46.8 53.7,38.7 51.6,38.7 51.6,44.6 45.6,44.6 45.6,38.7 43.5,38.7 "/>
<polyline class="st3" points="30.1,33.8 40.3,33.8 40.3,25.5 38.2,25.5 38.4,31.4 32.4,31.4 32.4,25.5 30.1,25.5 "/>
<polyline class="st3" points="43.5,33.8 53.7,33.8 53.7,25.5 51.6,25.5 51.6,31.4 45.6,31.4 45.6,25.5 43.5,25.5 "/>
<rect x="30.1" y="50" class="st3" width="10.2" height="1.9"/>
<rect x="30.1" y="36.8" class="st3" width="10.2" height="1.9"/>
<rect x="43.5" y="50" class="st3" width="10.2" height="1.9"/>
<rect x="43.5" y="36.8" class="st3" width="10.2" height="1.9"/>
<rect x="43.5" y="23.6" class="st3" width="10.2" height="1.9"/>
<rect x="30.1" y="23.6" class="st3" width="10.2" height="1.9"/>
<rect x="63.7" y="63" class="st3" width="10.2" height="1.9"/>
<rect x="63.4" y="50" class="st3" width="10.2" height="1.9"/>
<rect x="63.4" y="36.8" class="st3" width="10.2" height="1.9"/>
<polyline class="st3" points="53.7,62.9 43.8,62.9 43.8,83 45.9,83 45.7,65.1 51.6,65.1 51.6,83 53.7,83 "/>
<polyline class="st3" points="63.7,73.2 73.8,73.2 73.8,65.1 71.7,65.1 71.8,71 65.8,71 65.8,65.1 63.7,65.1 "/>
<polyline class="st3" points="63.4,60 73.5,60 73.5,51.9 71.4,51.9 71.5,57.8 65.5,57.8 65.5,51.9 63.4,51.9 "/>
<polyline class="st3" points="63.4,46.8 73.5,46.8 73.5,38.7 71.4,38.7 71.5,44.6 65.5,44.6 65.5,38.7 63.4,38.7 "/>
</svg>
